<svg width="934" height="218" viewBox="0 0 934 218" fill="none" xmlns="http://www.w3.org/2000/svg">
<path d="M133.468 4.91521C87.2797 4.91521 42.9904 30.2245 19.2117 70.7472C-3.33494 109.174 5.11439 140.082 20.5397 156.193C28.5704 164.582 38.7104 171.118 48.5144 177.441C51.2064 179.178 53.8957 180.913 56.5477 182.685C67.8771 190.257 81.4944 198.794 96.6157 204.671C110.309 209.994 137.004 217.421 161.937 207.41C165.678 205.906 169.33 204.122 172.793 202.103C196.846 188.097 211.656 163.307 211.442 137.409C211.374 129.049 211.574 120.55 211.769 112.33C211.99 102.89 212.218 93.1285 212.041 83.5872C211.66 63.3019 209.166 38.1125 193.146 23.2472C181.537 12.4739 163.745 6.36855 140.262 5.0992C137.996 4.97653 135.728 4.91521 133.468 4.91521ZM135.068 217.269C118.724 217.269 103.997 212.815 94.8344 209.254C79.2704 203.205 65.3651 194.494 53.8157 186.773C51.1864 185.017 48.5184 183.295 45.8491 181.574C35.8051 175.097 25.4211 168.399 16.9891 159.594C5.86372 147.974 0.181062 132.71 0.555729 115.45C0.889062 100.079 5.87572 83.7605 14.9704 68.2592C40.8317 24.1845 90.1077 -2.52213 140.529 0.188538C165.189 1.52054 184.017 8.06587 196.492 19.6405C213.869 35.7685 216.556 62.2365 216.957 83.4952C217.138 93.1405 216.906 102.955 216.684 112.445C216.492 120.627 216.292 129.087 216.36 137.367C216.588 165.026 200.841 191.462 175.269 206.354C171.601 208.489 167.732 210.381 163.77 211.971C154.165 215.829 144.356 217.269 135.068 217.269Z" fill="#5A0989"/>
<path fill-rule="evenodd" clip-rule="evenodd" d="M210.399 151.169C189.401 204.769 116.552 212.265 66.3667 192.606C16.1814 172.946 7.66274 133.575 28.6601 79.9739C49.6574 26.3739 104.212 9.18324 157.548 18.5179C217.44 29.0019 231.396 97.5672 210.399 151.169Z" fill="#FFE000"/>
<path fill-rule="evenodd" clip-rule="evenodd" d="M220.281 105.436C220.276 109.019 219.988 112.64 219.403 116.274C216.1 136.732 201.128 153.862 184.843 165.706C173.161 174.203 160.159 180.634 147.001 186.494C134.037 192.27 121.343 199.075 107.356 202.142C76.6108 208.88 49.2681 189.846 33.6988 164.466C10.3908 126.471 11.8988 78.1882 37.9454 42.0042C48.3361 27.5709 62.0588 14.1082 79.6374 9.23621C100.071 3.57088 122.221 12.5029 140.289 21.7469C155.208 29.3802 169.539 38.1309 184.383 45.9162C206.7 57.6215 220.313 80.5775 220.281 105.436Z" fill="#00C956"/>
<path d="M278.015 136.503L285.657 100.45H270.516L273.977 83.8659H289.119L293.155 64.6872L313.489 60.2166L308.443 83.8659H329.352L325.891 100.45H304.983L297.916 133.33C297.145 136.985 297.483 139.603 298.925 141.189C300.368 142.775 303.153 143.57 307.288 143.57C308.825 143.57 310.319 143.475 311.759 143.279C313.201 143.087 314.788 142.801 316.519 142.415L313.057 158.421C311.327 158.807 309.163 159.165 306.568 159.503C303.973 159.839 301.568 160.009 299.357 160.009C290.993 160.009 284.959 157.967 281.26 153.879C277.557 149.794 276.476 144.001 278.015 136.503Z" fill="#5A0989"/>
<path d="M363.093 143.279C366.071 143.279 368.909 142.655 371.602 141.406C374.291 140.157 376.649 138.449 378.667 136.286C380.686 134.123 382.273 131.577 383.426 128.642C384.581 125.711 385.157 122.611 385.157 119.342C385.157 113.67 383.377 108.959 379.821 105.209C376.263 101.459 371.745 99.5845 366.266 99.5845C363.285 99.5845 360.449 100.211 357.757 101.459C355.065 102.711 352.733 104.417 350.763 106.579C348.791 108.743 347.231 111.266 346.075 114.15C344.923 117.034 344.345 120.113 344.345 123.379C344.345 129.147 346.123 133.907 349.681 137.655C353.237 141.406 357.709 143.279 363.093 143.279ZM325.311 124.246C325.311 118.574 326.415 113.191 328.627 108.094C330.838 102.999 333.843 98.5539 337.639 94.7539C341.437 90.9579 345.906 87.9539 351.051 85.7419C356.194 83.5299 361.601 82.4245 367.275 82.4245C372.466 82.4245 377.345 83.3392 381.911 85.1645C386.478 86.9912 390.397 89.5165 393.666 92.7352C396.933 95.9579 399.506 99.7792 401.381 104.199C403.254 108.623 404.193 113.382 404.193 118.475C404.193 124.15 403.061 129.533 400.802 134.629C398.543 139.725 395.514 144.17 391.718 147.967C387.918 151.766 383.473 154.794 378.379 157.051C373.282 159.309 367.899 160.441 362.227 160.441C357.037 160.441 352.155 159.526 347.59 157.701C343.023 155.875 339.106 153.353 335.839 150.131C332.569 146.91 329.998 143.065 328.123 138.594C326.247 134.123 325.311 129.342 325.311 124.246Z" fill="#5A0989"/>
<path d="M450.051 99.5852C447.071 99.5852 444.234 100.068 441.543 101.028C438.85 101.989 436.399 103.385 434.188 105.209L427.843 134.773C429.668 137.368 432.216 139.412 435.486 140.9C438.752 142.392 442.263 143.136 446.014 143.136C452.646 143.136 458.246 140.829 462.812 136.213C467.379 131.6 469.663 125.976 469.663 119.341C469.663 113.767 467.81 109.081 464.112 105.281C460.41 101.485 455.722 99.5852 450.051 99.5852ZM396.838 189.139L419.191 83.8652H438.37L437.648 87.6159C440.34 86.0785 443.152 84.8999 446.084 84.0825C449.016 83.2679 452.02 82.8572 455.098 82.8572C459.807 82.8572 464.231 83.7479 468.366 85.5252C472.498 87.3052 476.031 89.7319 478.964 92.8065C481.896 95.8852 484.228 99.5625 485.959 103.839C487.69 108.117 488.555 112.708 488.555 117.611C488.555 123.476 487.448 128.981 485.239 134.123C483.024 139.267 480.046 143.763 476.298 147.607C472.548 151.452 468.124 154.481 463.03 156.691C457.934 158.903 452.503 160.008 446.735 160.008C442.31 160.008 438.176 159.309 434.334 157.917C430.486 156.524 427.122 154.481 424.238 151.788L416.162 189.139H396.838Z" fill="#5A0989"/>
<path d="M533.689 99.153C529.364 99.153 525.471 100.522 522.009 103.264C518.548 106.002 516.048 109.585 514.511 114.006H550.561C549.697 109.585 547.751 106.002 544.721 103.264C541.693 100.522 538.016 99.153 533.689 99.153ZM560.657 151.212C556.043 154.481 551.475 156.86 546.956 158.349C542.439 159.84 537.487 160.585 532.104 160.585C526.623 160.585 521.527 159.694 516.817 157.917C512.107 156.138 508.068 153.664 504.705 150.49C501.337 147.318 498.719 143.521 496.844 139.098C494.971 134.678 494.033 129.869 494.033 124.677C494.033 119.006 495.113 113.598 497.277 108.454C499.44 103.312 502.347 98.841 506.001 95.0437C509.655 91.245 513.956 88.2423 518.908 86.0303C523.859 83.8197 529.123 82.713 534.699 82.713C539.603 82.713 544.168 83.6277 548.399 85.453C552.628 87.2797 556.233 89.7797 559.215 92.953C562.193 96.1237 564.525 99.9463 566.209 104.416C567.889 108.886 568.732 113.718 568.732 118.909C568.732 119.968 568.683 121.097 568.588 122.297C568.492 123.501 568.3 125.398 568.011 127.994H513.213C514.077 132.802 516.36 136.696 520.061 139.676C523.763 142.656 528.257 144.145 533.547 144.145C536.719 144.145 539.697 143.666 542.487 142.704C545.273 141.742 547.725 140.397 549.84 138.665L560.657 151.212Z" fill="#5A0989"/>
<path d="M592.405 123.524C592.405 129.197 594.279 133.907 598.031 137.656C601.779 141.405 606.44 143.279 612.017 143.279C614.995 143.279 617.833 142.775 620.525 141.767C623.216 140.757 625.667 139.339 627.879 137.512L634.224 107.661C632.207 105.259 629.585 103.333 626.367 101.893C623.144 100.451 619.66 99.7294 615.911 99.7294C609.372 99.7294 603.82 102.037 599.256 106.651C594.688 111.265 592.405 116.891 592.405 123.524ZM623.553 158.997L624.419 155.249C621.727 156.788 618.889 157.967 615.911 158.781C612.931 159.599 609.901 160.008 606.825 160.008C602.113 160.008 597.716 159.117 593.631 157.34C589.544 155.563 586.011 153.136 583.032 150.057C580.049 146.983 577.696 143.305 575.965 139.025C574.235 134.749 573.371 130.159 573.371 125.255C573.371 119.391 574.475 113.885 576.687 108.743C578.897 103.601 581.877 99.1054 585.628 95.2587C589.377 91.4147 593.797 88.3867 598.895 86.1734C603.989 83.964 609.421 82.8574 615.191 82.8574C619.611 82.8574 623.745 83.5307 627.592 84.8774C631.436 86.2227 634.849 88.1454 637.829 90.644L644.752 58.052L665.085 53.728L642.733 158.997H623.553Z" fill="#5A0989"/>
<path d="M689.748 83.8658L673.886 158.998H654.562L670.426 83.8658H689.748Z" fill="#5A0989"/>
<path d="M687.814 158.998L703.677 83.8659H723.001L721.846 89.2019C724.826 87.0886 728.049 85.4779 731.509 84.3726C734.97 83.2672 738.576 82.7126 742.325 82.7126C746.746 82.7126 750.688 83.5072 754.149 85.0912C757.61 86.6779 760.398 88.8659 762.513 91.6539C764.628 94.4432 766.068 97.7592 766.841 101.603C767.609 105.45 767.51 109.633 766.552 114.15L757.034 158.998H737.566L746.794 116.026C747.756 111.122 747.06 107.134 744.704 104.055C742.346 100.981 738.814 99.4419 734.105 99.4419C731.122 99.4419 728.265 100.018 725.525 101.171C722.786 102.325 720.356 104.055 718.242 106.363L707.137 158.998H687.814Z" fill="#5A0989"/>
<path d="M790.856 123.524C790.856 129.197 792.729 133.907 796.481 137.656C800.229 141.405 804.89 143.279 810.468 143.279C813.446 143.279 816.284 142.775 818.977 141.767C821.666 140.757 824.117 139.339 826.33 137.512L832.674 107.661C830.657 105.259 828.036 103.333 824.817 101.893C821.594 100.451 818.11 99.7294 814.362 99.7294C807.824 99.7294 802.27 102.037 797.706 106.651C793.138 111.265 790.856 116.891 790.856 123.524ZM822.004 158.997L822.869 155.249C820.177 156.788 817.34 157.967 814.362 158.781C811.381 159.599 808.352 160.008 805.277 160.008C800.565 160.008 796.166 159.117 792.081 157.34C787.994 155.563 784.461 153.136 781.482 150.057C778.501 146.983 776.148 143.305 774.417 139.025C772.686 134.749 771.821 130.159 771.821 125.255C771.821 119.391 772.925 113.885 775.138 108.743C777.348 103.601 780.328 99.1054 784.078 95.2587C787.828 91.4147 792.248 88.3867 797.345 86.1734C802.44 83.964 807.872 82.8574 813.641 82.8574C818.061 82.8574 822.196 83.5307 826.042 84.8774C829.886 86.2227 833.3 88.1454 836.28 90.644L843.202 58.052L863.536 53.728L841.184 158.997H822.004Z" fill="#5A0989"/>
<path d="M892.772 143.279C895.751 143.279 898.588 142.655 901.282 141.406C903.971 140.157 906.328 138.449 908.348 136.286C910.366 134.123 911.952 131.577 913.106 128.642C914.26 125.711 914.836 122.611 914.836 119.342C914.836 113.67 913.058 108.959 909.5 105.209C905.943 101.459 901.424 99.5845 895.946 99.5845C892.964 99.5845 890.128 100.211 887.436 101.459C884.744 102.711 882.412 104.417 880.443 106.579C878.472 108.743 876.911 111.266 875.756 114.15C874.603 117.034 874.026 120.113 874.026 123.379C874.026 129.147 875.803 133.907 879.36 137.655C882.916 141.406 887.388 143.279 892.772 143.279ZM854.991 124.246C854.991 118.574 856.095 113.191 858.307 108.094C860.519 102.999 863.523 98.5539 867.32 94.7539C871.116 90.9579 875.587 87.9539 880.731 85.7419C885.874 83.5299 891.282 82.4245 896.955 82.4245C902.146 82.4245 907.024 83.3392 911.591 85.1645C916.158 86.9912 920.076 89.5165 923.346 92.7352C926.612 95.9579 929.186 99.7792 931.06 104.199C932.935 108.623 933.872 113.382 933.872 118.475C933.872 124.15 932.74 129.533 930.483 134.629C928.224 139.725 925.194 144.17 921.398 147.967C917.598 151.766 913.154 154.794 908.06 157.051C902.962 159.309 897.579 160.441 891.907 160.441C886.716 160.441 881.836 159.526 877.27 157.701C872.703 155.875 868.786 153.353 865.519 150.131C862.248 146.91 859.678 143.065 857.803 138.594C855.927 134.123 854.991 129.342 854.991 124.246Z" fill="#5A0989"/>
<path d="M672.865 64.4642C673.504 58.4015 678.834 53.6629 684.77 53.8802C690.706 54.0962 695 59.1869 694.36 65.2495C693.721 71.3122 688.392 76.0509 682.454 75.8335C676.518 75.6175 672.226 70.5269 672.865 64.4642Z" fill="#5A0989"/>
<path fill-rule="evenodd" clip-rule="evenodd" d="M40.6891 39.3145C48.1558 31.0251 58.0131 24.7318 69.0878 20.9664C77.5318 18.0931 86.4545 16.6331 95.3665 16.4518C109.896 16.1571 125.066 19.5705 139.176 22.8211C165.918 28.9838 197.621 40.7145 207.626 68.8971C211.013 78.4358 211.896 88.7304 211.296 98.8331C208.828 140.37 178.518 181.276 138.485 193.742C123.108 198.532 106.156 198.8 91.0238 193.286C69.6691 185.509 53.9478 167.014 44.9225 146.668C34.4331 123.021 23.7465 97.3878 26.5011 70.9478C27.7838 58.6491 32.9505 47.9078 40.6891 39.3145Z" fill="#681390"/>
<path d="M103.476 117.471C102.414 117.612 101.289 117.685 100.132 117.685C96.493 117.685 95.1944 116.855 94.7437 116.36C93.817 115.339 94.0224 113.22 94.3584 111.631L99.7197 86.6865H110.765L114.045 71.2425C114.217 70.4372 114.918 69.8652 115.736 69.8425H103.253L106.837 53.0398C106.964 52.4478 106.781 51.8332 106.353 51.4092C106.016 51.0732 105.565 50.8918 105.101 50.8918C104.973 50.8918 104.846 50.9065 104.72 50.9345L88.425 54.5172C87.7424 54.6652 87.2117 55.2025 87.0677 55.8852L84.129 69.8425H73.437C72.5957 69.8425 71.8704 70.4332 71.697 71.2572L68.925 84.5465C68.8157 85.0692 68.9477 85.6145 69.285 86.0292C69.6224 86.4452 70.129 86.6865 70.665 86.6865H80.6064L74.933 113.443C73.5837 120.008 74.6024 125.216 77.9557 128.919C81.2557 132.564 86.5797 134.413 93.7757 134.413C95.6104 134.413 97.6304 134.272 99.7824 133.993C100.121 133.949 100.43 133.904 100.748 133.86L104.254 117.347C103.997 117.388 103.725 117.437 103.476 117.471Z" fill="white"/>
<path d="M151.707 114.104C148.365 117.481 144.375 119.124 139.509 119.124C136.769 119.124 134.179 118.576 131.807 117.49C129.754 116.557 128.091 115.309 126.855 113.777L131.634 91.4995C133.122 90.3542 134.763 89.4582 136.523 88.8302C138.478 88.1315 140.57 87.7769 142.743 87.7769C146.827 87.7769 150.095 89.0955 152.737 91.8035C155.394 94.5315 156.683 97.8115 156.683 101.832C156.683 106.705 155.055 110.718 151.707 114.104ZM173.166 88.7422C171.701 85.1262 169.694 81.9635 167.198 79.3435C164.695 76.7169 161.642 74.6169 158.122 73.1022C154.598 71.5862 150.786 70.8195 146.789 70.8195C144.181 70.8195 141.59 71.1702 139.087 71.8662C137.754 72.2382 136.439 72.7022 135.154 73.2555C135.123 72.8982 134.986 72.5542 134.753 72.2715C134.415 71.8635 133.913 71.6275 133.383 71.6275H118.014C117.998 71.6275 117.983 71.6342 117.967 71.6342C117.15 71.6582 116.447 72.2302 116.277 73.0355L112.997 88.4782L106.486 119.138L102.979 135.653L98.362 157.396C98.2514 157.92 98.3834 158.465 98.7207 158.882C99.058 159.298 99.566 159.541 100.101 159.541H115.586C116.422 159.541 117.146 158.958 117.323 158.14L123.179 131.058C125.101 132.456 127.233 133.578 129.543 134.416C132.807 135.598 136.355 136.197 140.086 136.197C144.934 136.197 149.566 135.253 153.85 133.392C158.129 131.536 161.898 128.956 165.049 125.722C168.187 122.505 170.718 118.688 172.573 114.38C174.433 110.05 175.375 105.362 175.375 100.445C175.375 96.3075 174.631 92.3702 173.166 88.7422Z" fill="white"/>
</svg>
